<svg xmlns="http://www.w3.org/2000/svg" viewBox="0 0 40.3 52" style="enable-background:new 0 0 40.3 52" xml:space="preserve"><path d="M20.1 1.2h19.1v22.4c0 17-18.7 27.2-18.9 27.3l-.2.1-.3-.1C19.7 50.8 1 40.6 1 23.6V1.2h19.1z" style="fill:#fff"/><path d="M1 1.2v9.3L32.2 41c.6-.7 1.2-1.4 1.7-2.2l.4-.5s0-.1.1-.1c.1-.2.2-.3.3-.5l.1-.1.3-.4c0-.1.1-.1.1-.2l.2-.4c.1-.1.1-.2.1-.2 0-.1.1-.2.2-.3.1-.1.1-.2.2-.3.1-.1.1-.2.2-.3.1-.1.1-.2.2-.4l.1-.2.2-.4.1-.2.2-.5v-.1c.4-.9.7-1.7 1-2.6L7.5 1.2H1z" style="fill:#fed307"/><path d="M1 23.6c0 17 18.7 27.2 18.9 27.3l.3.1.3-.1c4.2-2.5 8-5.6 11.3-9.2L1 11.8v11.8zm38.3 0V1.2H8.6l29.7 28.9c.6-2.1 1-4.3 1-6.5z"/><path d="M14.3 39.4h-.4c-.4.1-.9.1-1.3.2-.2 0-.5-.1-.6-.2-.2-.1-.3-.3-.4-.5v-.2c0-.1 0-.2.1-.2.1-.1.1-.2.2-.2.1-.1.1-.2 0-.2-.1-.1-.2-.1-.3-.2-.4-.1-.8-.3-1.2-.4-.3-.1-.7-.3-.9-.5l-.3-.3c-.1-.1-.1-.3-.1-.4v-.1c.1-.2.2-.4.4-.5.1 0 .2-.1.4-.1.1 0 .1-.1.1-.2s-.1-.2-.2-.2c-.3-.3-.6-.5-.9-.8-.3-.2-.5-.5-.6-.8v-.3c0-.1.1-.2.2-.3.2-.1.3-.2.6-.3.1 0 .1-.1.2-.1 0-.1-.1-.1-.1-.2-.2-.2-.4-.3-.6-.5-.2-.2-.3-.4-.3-.6 0-.1 0-.2.1-.3.1-.1.2-.2.3-.2.1 0 .1-.1.1-.2s-.1-.2-.2-.3c-.1-.1-.1-.2-.1-.4 0-.1.1-.3.2-.4 0 0 .1-.1.1-.2 0-.2 0-.3.1-.5 0-.1 0-.1.1-.2 0-.1.1-.1.1-.1.1 0 .1-.1.2-.1h.6c.2-.1.4-.1.6 0 .2.1.4.2.5.3.1.2.1.2.3 0 .1-.1.3-.2.4-.2.2 0 .3 0 .5.1.1.1.3.2.3.4.1.2.1.3.2.5s.1.2.3.1c.2-.1.4-.2.7-.2.1 0 .2 0 .2.1.1 0 .1.1.2.2.2.3.3.6.4 1 .1.3.2.5.3.8 0 0 0 .1.1.1l.1.1h.1s.1 0 .1-.1l.4-.2c.1 0 .2-.1.3-.1.1 0 .2 0 .3.1.2.1.3.3.4.5.1.2.1.4.1.6v1.6c0 .1.1.1.2.1.1-.1.2-.1.4-.2.1 0 .2-.1.3-.1.1 0 .2 0 .3.1l.2.1.3.3c.1.1.1.2 0 .4 0 .2-.1.5-.2.7-.1.2-.1.6-.2.8v.1c0 .2.1.2.3.2h.4c.1 0 .2.1.3.1.1.1.2.2.3.4.2.5.2 1 0 1.5v.7c0 .1 0 .2-.1.3v.3l.1.1c.2.1.3.2.5.3l.9.6h.1v.3c-.1.1-.1.2-.2.2l-.1.1h-.1c-.1 0-.1-.1-.2-.1-.3-.3-.6-.6-1-.8-.1-.1-.2-.1-.3-.2-.1-.1-.2-.1-.3 0-.2.2-.4.3-.6.3h-.4c-.1 0-.1-.1-.2-.1 0 0-.1-.1-.1-.2-.1-.2-.2-.3-.5-.1-.2.1-.4.2-.6.4-.3.2-.7.3-1.1.2-.1 0-.2 0-.2-.1-.1 0-.1-.1-.2-.1 0-.1-.1-.1-.1-.2v-.2c-.4-.6-.3-.7-.3-.9zM35 13.5c.1 0 .2 0 .2.1.1 0 .1.1.2.2 0 .1.1.1.1.2v.2c-.1.4-.3.7-.6.9-.2.1-.4.3-.5.4-.2.2-.2.3 0 .5.1.1.2.2.2.3 0 .1 0 .2-.1.3-.1.2-.3.4-.5.5-.1.1-.2.1-.1.3 0 .1.1.2.1.3.1.4.3.8.5 1.2 0 .1.1.1.1.2v.2h-.1c-.1 0-.2.1-.3.1-.1 0-.2 0-.2-.1-.1-.3-.1-.7-.2-1 0-.2-.1-.4-.2-.6v-.1H33c-.1 0-.2-.1-.3-.1-.1-.1-.2-.1-.4-.1-.5 0-1.1-.2-1.5-.5-.1-.1-.2-.3-.3-.4v-.4c0-.1.1-.2.2-.3.1-.2.1-.2-.1-.3h-.1l-.9-.1c-.2 0-.5-.1-.7-.1-.1 0-.2-.1-.3-.2-.1-.1-.2-.2-.2-.3 0-.1 0-.2-.1-.3v-.3c0-.1.1-.2.1-.2l.3-.3c.1-.1.1-.2 0-.2-.1-.1-.3-.1-.4-.2-.4-.1-.7-.2-1.1-.4-.2-.1-.4-.2-.5-.3-.1-.2-.2-.3-.3-.5v-.3c0-.1.1-.2.1-.2.1-.1.2-.2.4-.3l.1-.1V11s0-.1-.1-.1c-.2-.2-.4-.4-.6-.5-.3-.2-.6-.4-.8-.7 0-.1-.1-.1-.1-.2v-.2c.1-.2.2-.4.4-.6.1-.1.1-.2 0-.3-.1-.1-.3-.2-.4-.3-.1-.1-.2-.2-.2-.3-.1-.1-.1-.2-.1-.4s.1-.2.1-.3c.1-.1.2-.2.3-.2.2-.1.2-.1.1-.3-.1-.2-.2-.4-.2-.5 0-.2.1-.4.2-.5.1-.1.1-.2.2-.4V5c0-.1.1-.1.1-.1s.1-.1.2-.1h.2c.2 0 .3.1.5.1h.2c.1-.1.3-.1.4-.1.1 0 .3.1.3.2.1-.1.2 0 .2 0h.2c.1-.1.2-.2.3-.2h.4c.2.1.4.3.4.5.1.2.2.5.3.7 0 .1.1.1.1.2.1 0 .1-.1.2-.1.2-.1.4-.2.5-.3.1-.1.2-.1.3-.1.1 0 .2 0 .3.1.3.2.4.5.6.8.2.4.3.8.4 1.2l.2.2h.2c.1-.1.1-.2.2-.3.1-.1.4-.2.6-.2h.1c.1 0 .3.1.4.2.1.1.2.2.2.4.1.3.2.7.2 1.1v1.3c0 .1 0 .2.1.3 0 .1.1.1.2.1s.2-.1.3-.1h.2c.1 0 .2 0 .2.1.2.1.3.3.4.5.1.2 0 .5 0 .7l-.6 1.2c-.1.1-.1.2-.2.3 0-.1.2-.1.4-.1" style="fill-rule:evenodd;clip-rule:evenodd;fill:#fed307"/><path d="m26.8 5.9.4.4 1 1c.2.2.4.4.6.7.2.3.4.5.6.8.2.3.4.6.7.9s.4.6.6.9c.2.3.4.6.6 1 .2.3.4.6.5 1 .2.3.3.6.4.9l.3.9.2.7v.4c0 .1 0 .2.1.3.1.3.1.5.1.5l.1-.7c0-.1-.1-.2-.1-.3v-.2l-.1-.1c-.1-.2-.2-.5-.3-.7-.1-.3-.2-.5-.4-.8-.1-.1-.1-.3-.2-.4l-.2-.5-.6-.9c-.2-.3-.4-.6-.6-1l-.6-.9-.6-.9c-.3-.3-.5-.6-.7-.9-.2-.3-.4-.5-.6-.7l-.5-.6-.4-.5-.3-.3m-9.5 33.5s-.2-.1-.4-.3c-.3-.2-.6-.5-1.1-.9-.2-.2-.5-.4-.7-.6-.2-.2-.5-.5-.8-.7s-.4-.4-.8-.8c-.3-.3-.5-.6-.8-.8-.3-.3-.5-.6-.7-.9l-.6-.9-.6-.9c-.2-.3-.3-.6-.5-.8-.1-.3-.2-.5-.3-.7 0-.1-.1-.1-.1-.2h.1l-.1-.3-.2-.5.2.5c0 .1.1.2.1.3 0 .1 0 .1.1.1l.1.1.4.7c.1.2.3.5.5.8.1.1.2.3.3.4.1.1.2.3.3.4.2.3.4.6.7.9.2.3.5.6.7.9.3.3.5.6.8.8s.5.5.8.8l.7.7c.2.2.5.4.7.6l.6.5.4.4.2.4"/><path d="m14.3 13.6-.2.2c-.1.1-.1.1-.2.1s-.1.1-.2.1h-.3c-.2 0-.4-.1-.6-.1-.1-.1-.3-.2-.3-.3 0-.1-.1-.1-.1-.2s-.1-.2-.2-.3l-.2-.2c-.1-.1-.2-.1-.3-.2-.1.2-.3.3-.4.4.1.3.3.5.5.6.1.1.2.1.3.2l.1.1c0 .1.1.2.1.2 0 .1.1.2.1.3v.3c0 .2-.1.3-.1.4-.1.1-.1.2-.2.2l-.3.3c-.1.1-.3.4-.5.6-.3-.2-.6-.4-.7-.5-.2-.1-.2-.1-.3-.2-.1 0-.1-.1-.2-.1-.1-.1-.1-.1-.1-.2s-.1-.2-.1-.3v-.3c0-.2 0-.4.1-.5l.3-.3c.1-.1.2-.2.2-.3 0-.1.1-.2.1-.2 0-.1.1-.2.1-.3-.2-.1-.4-.2-.5-.3-.2.2-.4.4-.5.7 0 .1-.1.3-.1.4 0 .1 0 .1-.1.1l-.2.2c-.2.1-.3.2-.5.3h-.3c-.2 0-.4-.1-.5-.2l-.3-.1c-.2-.1-.4-.2-.7-.3l.3-.8c.1-.2.1-.2.1-.3 0-.1.1-.2.1-.2.1-.1.2-.3.3-.4.1-.1.3-.2.5-.2h.4c.1.1.3.2.4.2l.1.1h.7c0-.2 0-.4.1-.6-.2-.1-.4-.2-.6-.2h-.8c-.1 0-.2-.1-.2-.1-.2-.1-.3-.3-.4-.4 0-.1-.1-.2-.1-.2v-.5c0-.1 0-.2.1-.4-.1-.3 0-.6 0-.8h1.4c.2 0 .3.1.4.2.2.1.3.3.4.5.1.1.1.3.1.4v.6c0 .1 0 .2.1.3 0 .1.1.2.1.3.1 0 .2-.1.3-.1h.3c.1-.2.1-.4.1-.6 0-.1 0-.2-.1-.3l-.1-.2c-.1-.1-.1-.2-.1-.3 0-.1 0-.2.1-.3.1-.2.2-.4.3-.5.1-.1.2-.2.4-.3.1 0 .2 0 .3-.1.1 0 .2 0 .4-.1.2 0 .5-.1.7-.2.1.3.2.6.3.8.1.2.1.3.1.3 0 .1.1.2.1.2 0 .2 0 .3-.1.5-.1.3-.3.5-.5.6-.1 0-.1.1-.2.1h-.4c-.1 0-.1 0-.2.1-.1 0-.2.1-.2.1-.1.1-.2.1-.2.2.1.1.1.2.2.3 0 .1.1.2.1.3h.3c.2 0 .4-.1.5-.2l.3-.3.1-.1h.3c.2 0 .4 0 .6.1.2 0 .3.1.4.3.1.1.1.2.2.3 0 .1.1.2.2.3.1.2.2.4.4.6-.7.3-.9.5-1.1.7m8.8 8.5c-.1.1-.2.1-.2.2-.1.1-.1.1-.2.1s-.1.1-.2.1h-.3c-.2 0-.4-.1-.6-.1-.1-.1-.3-.2-.3-.3 0-.1-.1-.2-.1-.2 0-.1-.1-.2-.2-.3l-.2-.2c-.1-.1-.2-.1-.3-.2-.1.2-.3.3-.4.4.1.3.3.5.5.7.1.1.2.1.3.2l.1.1c0 .1.1.2.1.2 0 .1.1.2.1.3v.3c0 .2 0 .3-.1.5-.1.1-.2.1-.2.2l-.3.3-.5.6c-.3-.2-.6-.4-.7-.5-.2-.1-.2-.1-.3-.2-.1 0-.1-.1-.2-.1-.1-.1-.1-.1-.1-.2-.1-.1-.1-.2-.1-.3-.1-.3-.1-.6 0-.8.1-.1.2-.3.3-.3.1-.1.2-.2.2-.3 0-.1.1-.2.1-.2 0-.1.1-.2.1-.3-.2-.1-.4-.2-.5-.3-.2.2-.4.4-.5.7 0 .1-.1.3-.1.4 0 .1 0 .1-.1.1l-.2.2c-.2.1-.3.2-.5.3h-.3c-.2 0-.3-.1-.5-.2-.1-.1-.2-.1-.3-.2-.2-.1-.4-.2-.7-.3l.3-.9c.1-.2.1-.2.1-.3 0-.1.1-.1.1-.2.1-.1.2-.3.3-.4.2-.1.4-.2.6-.2h.4l.4.2.2.1h.6c0-.2 0-.4.1-.6-.2-.1-.4-.2-.6-.2h-.9c-.1 0-.2-.1-.2-.1-.2-.1-.3-.3-.4-.4-.1-.1-.1-.1-.1-.2v-.5c0-.1.1-.2.1-.4s0-.5.1-.7h1.4c.2 0 .3.1.4.2.2.1.3.3.4.5 0 .1.1.1.1.2v.8c0 .1 0 .2.1.3 0 .1.1.2.1.3.1 0 .2-.1.3-.1h.3c.1-.2.1-.4.1-.6 0-.1 0-.2-.1-.3l-.1-.2c0-.1-.1-.2-.1-.3 0-.3.1-.5.3-.8.1-.1.2-.2.4-.3.1 0 .2 0 .3-.1.1 0 .2 0 .4-.1.2 0 .5-.1.7-.2.1.3.2.6.3.8 0 .1.1.2.1.3 0 .1.1.2.1.2 0 .2 0 .3-.1.5-.1.3-.3.5-.5.6-.1 0-.1.1-.2.1h-.4c-.1 0-.1 0-.2.1-.1 0-.1.1-.2.2s-.2.1-.2.2c.1.1.1.2.2.3 0 .1.1.2.1.3h.3c.2 0 .4-.1.5-.2l.3-.3h.3c.2 0 .4 0 .6.1.2 0 .3.1.4.3.1.1.1.2.2.3 0 .1.1.2.2.3.1.2.2.4.4.6-.4.1-.7.3-.9.4m8.7 9c-.1.1-.1.1-.2.1s-.1.1-.2.1h-.3c-.2 0-.4-.1-.6-.1-.1-.1-.3-.2-.3-.3 0-.1-.1-.2-.1-.2 0-.1-.1-.2-.2-.3l-.2-.2c-.1-.1-.2-.1-.3-.2-.1.2-.3.3-.4.4.1.3.3.5.5.7.1.1.2.1.3.2l.1.1c0 .1.1.2.1.2 0 .1.1.2.1.3v.3c0 .2-.1.3-.1.4-.1.1-.1.2-.2.2l-.3.3c-.1.1-.3.4-.5.6-.3-.2-.6-.4-.7-.5-.2-.1-.2-.1-.3-.2-.1 0-.1-.1-.2-.1-.1-.1-.1-.1-.1-.2s-.1-.2-.1-.3v-.3c0-.2 0-.4.1-.5l.3-.3c.1-.1.2-.2.2-.3 0-.1.1-.2.1-.2 0-.1.1-.2.1-.3-.2-.1-.4-.2-.5-.3-.2.2-.4.4-.5.7 0 .1-.1.3-.1.4 0 .1 0 .1-.1.1l-.2.2c-.2.1-.3.2-.5.3h-.3c-.2 0-.3-.1-.5-.2l-.3-.2-.7-.3.3-.9c.1-.2.1-.2.1-.3 0-.1 0-.2.1-.2.1-.1.2-.3.3-.3.2-.1.4-.2.6-.2h.4l.4.2.2.1h.6c0-.2 0-.4.1-.6-.2-.1-.4-.2-.6-.2h-.9c-.1 0-.2-.1-.2-.1-.2-.1-.3-.2-.4-.4 0-.1-.1-.2-.1-.2v-.5c0-.1.1-.2.1-.4s.1-.5.1-.7h1.4c.2 0 .3.1.4.2.2.1.3.3.4.5.1.1.1.3.1.4v.6c0 .1 0 .2.1.3 0 .1.1.2.1.3.1 0 .2-.1.3-.1h.3c.1-.2.1-.4.1-.6 0-.1 0-.2-.1-.3l-.1-.2c0-.1-.1-.2-.1-.3 0-.1 0-.2.1-.3.1-.2.2-.4.3-.5.1-.1.2-.2.4-.3.1 0 .2 0 .3-.1.1 0 .2 0 .4-.1.2 0 .5-.1.7-.2.1.3.2.6.3.8.1.2.1.3.1.3 0 .1.1.2.1.2 0 .2 0 .3-.1.5-.1.3-.3.5-.5.6-.1 0-.1.1-.2.1H30c-.1 0-.1 0-.2.1-.1 0-.2.1-.2.1-.1.1-.2.1-.2.2.1.1.1.2.2.3 0 .1.1.2.1.3h.3c.2 0 .4-.1.5-.2l.3-.3s.1-.1.2-.1h.3c.2 0 .4 0 .6.1.2 0 .3.1.4.3.1.1.1.2.2.3 0 .1.1.2.2.3.1.2.2.4.4.6-.3.2-.6.4-.7.5-.5.1-.5.2-.6.3" style="fill:#0b72ba"/></svg>